<svg width="20" height="24" viewBox="0 0 24 24" fill="none" xmlns="http://www.w3.org/2000/svg" data-id="IcBagBaggage">
<path d="M8 7.2C8 6.07989 8 5.51984 8.21799 5.09202C8.40973 4.71569 8.71569 4.40973 9.09202 4.21799C9.51984 4 10.0799 4 11.2 4H12.8C13.9201 4 14.4802 4 14.908 4.21799C15.2843 4.40973 15.5903 4.71569 15.782 5.09202C16 5.51984 16 6.07989 16 7.2V8H8V7.2Z" stroke="#0194F3" stroke-width="2" stroke-linecap="round" stroke-linejoin="round"></path><path d="M6 8.00005V20M18 8.00005V20M2 10V18C2 19.1046 2.89543 20 4 20H20C21.1046 20 22 19.1046 22 18V10C22 8.89547 21.1046 8.00004 20 8.00004L4 8C2.89543 8 2 8.89543 2 10Z" stroke="#0194f3" stroke-width="2" stroke-linecap="round" stroke-linejoin="round"></path>
</svg>