<svg width="20" viewBox="0 0 12 12" fill="none" xmlns="http://www.w3.org/2000/svg">
<path fill-rule="evenodd" clip-rule="evenodd" d="M6 0C2.6865 0 0 2.6865 0 6C0 9.3135 2.6865 12 6 12C9.3135 12 12 9.3135 12 6C12 2.6865 9.3135 0 6 0ZM6 1.5C7.9643 1.5 9.6234 2.75775 10.25 4.5H1.75C2.3766 2.75775 4.0357 1.5 6 1.5ZM5.25 6.25C5.25 6.66437 5.58563 7 6 7C6.41437 7 6.75 6.66437 6.75 6.25C6.75 5.83563 6.41437 5.5 6 5.5C5.58563 5.5 5.25 5.83563 5.25 6.25ZM1.5 6C3.55266 6 5.21507 8.00873 5.25 10.5C3.1256 10.1304 1.5 8.26049 1.5 6ZM6.75601 10.5C6.79094 8.00873 8.45335 6 10.506 6C10.506 8.26049 8.88041 10.1304 6.75601 10.5Z" fill="#0194f3"></path>
</svg>